<svg width="24" height="24" viewBox="0 0 24 24" fill="none" xmlns="http://www.w3.org/2000/svg">
<rect width="24" height="24" fill="#F5F5F5"/>
<g id="Favorite" clip-path="url(#clip0_46_42)">
<rect width="1600" height="2762" transform="translate(-992 -28)" fill="white"/>
<g id="Frame 2" opacity="0.8">
<g id="Frame 2608967">
<g id="emojione:flag-for-romania" clip-path="url(#clip1_46_42)">
<path id="Vector" d="M0.75 11.9992C0.75 16.9117 3.9 21.0742 8.25 22.6117V1.38672C3.9 2.92422 0.75 7.08672 0.75 11.9992Z" fill="#2A5F9E"/>
<path id="Vector_2" d="M23.25 11.9992C23.25 7.08672 20.1375 2.92422 15.75 1.38672V22.6117C20.1375 21.0742 23.25 16.9117 23.25 11.9992Z" fill="#C94747"/>
<path id="Vector_3" d="M8.25 22.6125C9.4125 23.025 10.6875 23.25 12 23.25C13.3125 23.25 14.5875 23.025 15.75 22.6125V1.3875C14.5875 0.975 13.3125 0.75 12 0.75C10.6875 0.75 9.4125 0.975 8.25 1.3875V22.6125Z" fill="#FFCE31"/>
</g>
</g>
</g>
</g>
<defs>
<clipPath id="clip0_46_42">
<rect width="1600" height="2762" fill="white" transform="translate(-992 -28)"/>
</clipPath>
<clipPath id="clip1_46_42">
<rect width="24" height="24" fill="white"/>
</clipPath>
</defs>
</svg>
