<svg width="107" height="50" viewBox="0 0 107 50" fill="none" xmlns="http://www.w3.org/2000/svg">
<g clip-path="url(#clip0_133_2031)">
<mask id="mask0_133_2031" style="mask-type:luminance" maskUnits="userSpaceOnUse" x="0" y="0" width="107" height="50">
<path d="M107 0H0V50H107V0Z" fill="white"/>
</mask>
<g mask="url(#mask0_133_2031)">
<path d="M4.49958e-06 0.228653H14.1488V2.00103H7.98801V19.5593H6.16069V2.00103H0L4.49958e-06 0.228653ZM50.0916 0.228653V14.3048C50.0916 15.981 49.4693 17.2888 48.2251 18.2219C46.9807 19.1551 45.2448 19.6218 43.0172 19.6218C40.7896 19.6218 39.0578 19.1551 37.8223 18.2219C36.5867 17.2888 35.9688 15.9829 35.9688 14.3048V0.228653H37.7962V14.3048C37.7962 15.0734 37.9755 15.6928 38.3314 16.1542C38.6872 16.6155 39.1327 16.977 39.6627 17.2329C40.1924 17.4889 40.7642 17.6577 41.3725 17.7338C41.9807 17.8099 42.5298 17.8495 43.0171 17.8495C43.5045 17.8495 44.0536 17.8099 44.6617 17.7338C45.2699 17.6577 45.8418 17.4889 46.3716 17.2329C46.9014 16.977 47.3514 16.6156 47.7159 16.1542C48.0805 15.6928 48.2642 15.0753 48.2642 14.3048V0.228653H50.0916ZM67.3207 19.4677L60.9771 11.7105H54.9732V19.4677H53.1458V1.15341C53.1458 0.91366 53.238 0.703014 53.4199 0.524003C53.6016 0.345109 53.8158 0.254339 54.0595 0.254339H62.4129H62.4652C63.2484 0.271481 63.9846 0.435074 64.6711 0.742358C65.3576 1.04976 65.9642 1.46253 66.4854 1.9754C67.0065 2.48828 67.4172 3.09364 67.7122 3.78621C68.0072 4.47888 68.156 5.21183 68.156 5.98241C68.156 6.70167 68.0289 7.37893 67.7775 8.01157C67.526 8.64434 67.1761 9.21551 66.7333 9.71976C66.2905 10.2241 65.7707 10.6453 65.1801 10.9783C64.5892 11.3114 63.9444 11.5305 63.2484 11.6334L69.6702 19.4677H67.3207ZM54.9732 9.91234H62.3346C62.8742 9.91234 63.3885 9.80868 63.8748 9.60409C64.3612 9.39943 64.7893 9.11518 65.154 8.75643C65.5186 8.39784 65.8076 7.98071 66.0154 7.51063C66.2234 7.04068 66.3287 6.53034 66.3287 5.98238C66.3287 5.43443 66.2232 4.91972 66.0154 4.44124C65.8076 3.96266 65.5186 3.54551 65.154 3.19543C64.7894 2.84534 64.3612 2.56521 63.8748 2.36055C63.3885 2.156 62.8723 2.05234 62.3346 2.05234H54.9732V9.91234ZM71.9412 0.228653H73.7685V19.4677H71.9412V0.228653ZM84.2886 8.98768C85.1239 9.15884 85.9558 9.35234 86.782 9.56551C87.6073 9.77876 88.3438 10.075 88.9875 10.4518C89.6312 10.8285 90.1545 11.3217 90.5535 11.9287C90.9533 12.5359 91.154 13.3287 91.154 14.3047C91.154 15.9828 90.5311 17.2895 89.2878 18.2218C88.0444 19.1542 86.3075 19.6218 84.0796 19.6218C81.8523 19.6218 80.1198 19.1542 78.8851 18.2218C77.6503 17.2895 77.0316 15.9828 77.0316 14.3047H78.859C78.859 15.0753 79.0382 15.6927 79.3941 16.1542C79.75 16.6156 80.1957 16.9769 80.7254 17.2329C81.2552 17.4889 81.827 17.6577 82.4354 17.7338C83.0436 17.8098 83.5927 17.8494 84.0796 17.8494C84.5673 17.8494 85.1164 17.8098 85.7244 17.7338C86.3324 17.6577 86.9047 17.4889 87.4348 17.2329C87.964 16.9769 88.4143 16.6156 88.7785 16.1542C89.1434 15.6927 89.3268 15.0753 89.3268 14.3047C89.3268 13.7738 89.2388 13.3278 89.0663 12.969C88.8929 12.6103 88.5952 12.3003 88.1788 12.0443C87.7616 11.7883 87.2025 11.5553 86.5074 11.3508C85.8123 11.1463 84.9414 10.9398 83.8971 10.7343C83.0619 10.5631 82.2299 10.3696 81.4041 10.1564C80.5783 9.94334 79.8412 9.64593 79.1983 9.27026C78.5552 8.89434 78.0314 8.39601 77.6321 7.7804C77.2328 7.1648 77.0316 6.36765 77.0316 5.3915C77.0316 3.71346 77.6503 2.40241 78.8851 1.46158C80.1198 0.52074 81.8523 0.0488281 84.0796 0.0488281C86.3075 0.0488281 88.0444 0.52074 89.2878 1.46158C90.5311 2.40241 91.154 3.71346 91.154 5.3915H89.3268C89.3268 4.62093 89.1434 4.0036 88.7785 3.54216C88.4143 3.08071 87.964 2.71936 87.4348 2.46338C86.9047 2.20741 86.3324 2.03864 85.7244 1.96248C85.1164 1.88633 84.5673 1.84686 84.0796 1.84686C83.5927 1.84686 83.0436 1.88633 82.4354 1.96248C81.827 2.03864 81.2553 2.20741 80.7254 2.46338C80.1957 2.71936 79.75 3.08072 79.3941 3.54216C79.0383 4.0036 78.8591 4.62093 78.8591 5.3915C78.8591 5.92243 78.9504 6.36765 79.1331 6.72728C79.3159 7.08679 79.6214 7.40029 80.0467 7.66478C80.4722 7.92927 81.0309 8.1666 81.7175 8.37118C82.4039 8.57568 83.2618 8.78209 84.2886 8.98768ZM92.8511 0.228653H107V2.00103H100.84V19.4677H99.0115V2.00103H92.8511V0.228653Z" fill="#191516"/>
<path fill-rule="evenodd" clip-rule="evenodd" d="M6.24609 38.253V32.0628C6.24609 31.271 6.59592 30.4966 7.20822 29.9629L13.0681 24.7307C14.205 23.7669 15.7793 23.7669 16.9163 24.7307L22.776 29.9629C23.3883 30.4793 23.7382 31.271 23.7382 32.0628V38.253H21.9015V32.1489C21.9015 31.8047 21.7266 31.5464 21.5516 31.271L15.6917 26.0388C15.517 25.8667 15.2546 25.7805 14.9922 25.7805C14.7297 25.7805 14.4674 25.8667 14.205 26.0388L8.34498 31.271C8.08276 31.4432 7.99519 31.7873 7.99519 32.1489V38.253H6.24609Z" fill="#3378FF"/>
<path fill-rule="evenodd" clip-rule="evenodd" d="M7.99878 21.7168V26.8864L6.16211 28.5454V21.7168H7.99878ZM7.99878 29.3396V38.2357H6.16211V30.9985L7.99878 29.3396Z" fill="#3378FF"/>
<path d="M94.1679 28.4325C94.0377 28.4795 93.9116 28.528 93.7905 28.5775C93.6785 28.6233 93.5723 28.6704 93.4728 28.718C93.3832 28.761 93.3028 28.8074 93.2323 28.8565C93.1618 28.9059 93.0979 28.96 93.0398 29.0186C92.9842 29.0758 92.9353 29.1383 92.893 29.2054L92.8938 29.2058C92.8499 29.2761 92.8126 29.3521 92.7827 29.433C92.7512 29.5168 92.7255 29.614 92.7055 29.724C92.7006 29.7509 92.6964 29.7784 92.6923 29.8065H95.9097H96.2009V30.094L96.2017 30.648V30.9356H95.9106H92.0818C92.0047 30.9356 91.9308 30.9208 91.8612 30.8912C91.7931 30.8625 91.7318 30.8209 91.6779 30.7684C91.6248 30.7159 91.5833 30.6557 91.5534 30.5883C91.5236 30.5196 91.5078 30.4471 91.5078 30.371C91.5078 30.1312 91.5219 29.9069 91.5501 29.6989C91.5775 29.4894 91.6198 29.3003 91.677 29.1324C91.7923 28.792 91.9566 28.508 92.1689 28.2812C92.3771 28.0584 92.6243 27.8765 92.9088 27.7365C93.0473 27.6685 93.1866 27.6056 93.326 27.5484C93.4653 27.4912 93.6155 27.4345 93.7764 27.3789C93.9365 27.3217 94.0791 27.2694 94.2019 27.2228C94.3114 27.1814 94.4292 27.1345 94.5552 27.0825C94.6581 27.0397 94.7485 26.9979 94.8256 26.9574C94.9053 26.9151 94.9733 26.8743 95.0272 26.8352V26.8341C95.0795 26.7972 95.1234 26.759 95.1591 26.7201C95.1931 26.6834 95.2188 26.647 95.2371 26.6118C95.2561 26.5761 95.2702 26.5342 95.2802 26.4869C95.291 26.4365 95.2968 26.3776 95.2968 26.3108C95.2968 26.2172 95.2868 26.1366 95.2669 26.07C95.2495 26.0103 95.2238 25.9592 95.1906 25.9174C95.1466 25.8617 95.0985 25.8135 95.0479 25.7735C94.9957 25.7311 94.9385 25.695 94.8779 25.6658C94.7435 25.6006 94.5984 25.5581 94.4424 25.5385C94.3611 25.5283 94.2774 25.52 94.1911 25.514C94.1173 25.5089 94.0443 25.5062 93.9721 25.5062C93.9 25.5062 93.827 25.5089 93.7532 25.5139C93.6669 25.52 93.5831 25.5283 93.5018 25.5385C93.3475 25.558 93.2024 25.6005 93.068 25.6658H93.0664C93.0058 25.695 92.9494 25.7308 92.898 25.7724C92.8466 25.814 92.8009 25.8615 92.7603 25.914C92.7288 25.955 92.7039 26.0069 92.6856 26.069C92.6657 26.1374 92.6558 26.2182 92.6558 26.3108V26.5985H92.3638H91.8006H91.5078V26.3108C91.5078 25.7005 91.7367 25.2211 92.1938 24.8729C92.4136 24.705 92.6757 24.5796 92.9793 24.497C93.2737 24.417 93.6047 24.377 93.9721 24.377C94.3396 24.377 94.6705 24.417 94.965 24.497C95.2686 24.5796 95.5307 24.705 95.7513 24.8729C95.9794 25.047 96.1511 25.2561 96.2664 25.5001C96.3792 25.7405 96.4364 26.0109 96.4364 26.3108C96.4364 26.4718 96.4199 26.6226 96.3859 26.7627C96.3518 26.9064 96.2988 27.0395 96.2274 27.1618C96.1611 27.2755 96.0831 27.3813 95.9952 27.4782C95.9064 27.5757 95.8069 27.6646 95.6982 27.7441C95.5921 27.8218 95.4793 27.893 95.3598 27.9575C95.2412 28.0214 95.1126 28.0812 94.9733 28.1362C94.853 28.1843 94.7203 28.2348 94.5776 28.2874C94.4466 28.3355 94.3097 28.3841 94.1679 28.4325ZM100.819 30.9356H99.6805V30.648V29.503H97.0129C96.9358 29.503 96.862 29.4882 96.7923 29.4587C96.7234 29.4299 96.6629 29.3886 96.609 29.3358V29.3346C96.5551 29.281 96.5128 29.221 96.4837 29.1547L96.4846 29.1545C96.4539 29.0845 96.4389 29.0123 96.4389 28.9385V28.8672C96.4389 28.8034 96.4505 28.7402 96.4729 28.6783C96.4945 28.6201 96.5269 28.5654 96.5683 28.5145L96.5708 28.5111L99.8123 24.633L99.8132 24.6319C99.8936 24.5375 99.989 24.4756 100.1 24.4469C100.207 24.419 100.32 24.425 100.438 24.465L100.442 24.4662C100.498 24.4863 100.549 24.5127 100.594 24.5449L100.595 24.546C100.641 24.58 100.682 24.6213 100.717 24.6696C100.751 24.7174 100.777 24.7685 100.794 24.8228C100.811 24.8778 100.82 24.9333 100.82 24.989L100.819 30.9356ZM98.1626 28.3738H99.6805V26.5635L98.1626 28.3738Z" fill="#3378FF"/>
<path d="M23.2295 0.171875C25.9744 0.171875 28.4594 1.26676 30.2583 3.03672C32.057 4.80668 33.1697 7.25195 33.1697 9.95285C33.1697 12.6538 32.0572 15.0991 30.2583 16.8691C28.4594 18.6392 25.9745 19.7339 23.2295 19.7339C20.4846 19.7339 17.9995 18.6392 16.2006 16.8691C14.4018 15.099 13.2891 12.6537 13.2891 9.95285C13.2891 7.25197 14.4018 4.80667 16.2006 3.03672C17.9996 1.26676 20.4846 0.171875 23.2295 0.171875ZM28.9525 4.32153C27.488 2.8806 25.4646 1.98912 23.2295 1.98912C20.9945 1.98912 18.971 2.8806 17.5064 4.32165C16.0419 5.76258 15.1359 7.75366 15.1359 9.95285C15.1359 12.1521 16.0419 14.1432 17.5064 15.5842C18.971 17.0253 20.9946 17.9167 23.2295 17.9167C25.4646 17.9167 27.488 17.0254 28.9525 15.5843C30.417 14.1431 31.323 12.152 31.323 9.95285C31.323 7.75366 30.417 5.76257 28.9525 4.32153Z" fill="#191516"/>
<path d="M35.6523 24.1328C37.625 24.1328 39.4112 24.9197 40.7042 26.1919C41.997 27.4641 42.7967 29.2216 42.7967 31.1627C42.7967 33.1039 41.9969 34.8614 40.7042 36.1335C39.4112 37.4056 37.625 38.1926 35.6523 38.1926C33.6795 38.1926 31.8933 37.4056 30.6004 36.1335C29.3077 34.8614 28.5078 33.1039 28.5078 31.1627C28.5078 29.2216 29.3075 27.4641 30.6004 26.1919C31.8932 24.9198 33.6795 24.1328 35.6523 24.1328ZM62.2614 24.2141C64.0192 24.2141 65.3945 24.8399 66.3729 26.0765C67.3511 27.3131 67.8479 29.0546 67.8479 31.2522V38.1361H66.0466V31.2522C66.0466 30.7727 65.9981 30.2241 65.9161 29.6211C65.834 29.0181 65.6449 28.4338 65.3809 27.9001C65.1169 27.3665 64.7283 26.9112 64.2323 26.5516C63.7364 26.192 63.0794 26.0121 62.2614 26.0121C61.4435 26.0121 60.7865 26.192 60.2905 26.5516C59.7945 26.9112 59.4059 27.3665 59.1419 27.9001C58.878 28.4338 58.6929 29.014 58.6067 29.6211C58.5206 30.2281 58.4762 30.7841 58.4762 31.2522V38.1361H56.649V31.2522C56.649 30.7727 56.6005 30.2241 56.5183 29.6211C56.4363 29.0181 56.2523 28.4344 55.9963 27.9001C55.7402 27.3656 55.3568 26.9112 54.8608 26.5516C54.3648 26.192 53.7077 26.0121 52.8898 26.0121C52.0718 26.0121 51.41 26.1969 50.919 26.5516C50.4279 26.9064 50.0344 27.3665 49.7704 27.9001C49.5065 28.4338 49.3221 29.0132 49.2351 29.6211C49.1481 30.229 49.1047 30.7841 49.1047 31.2522V38.1361H47.2773V31.2522C47.2773 29.0432 47.774 27.3131 48.7522 26.0765C49.7306 24.8399 51.1147 24.2141 52.8898 24.2141C53.9688 24.2141 54.9057 24.4552 55.683 24.9205C56.4604 25.3857 57.0927 26.0721 57.5625 26.9626C58.0324 26.0721 58.6691 25.3857 59.4553 24.9205C60.2412 24.4553 61.1824 24.2141 62.2614 24.2141ZM39.3983 27.4766C38.4396 26.5336 37.1152 25.9501 35.6523 25.9501C34.1893 25.9501 32.8648 26.5336 31.9062 27.4766C30.9477 28.4201 30.3547 29.7233 30.3547 31.1627C30.3547 32.6021 30.9477 33.9054 31.9062 34.8486C32.8649 35.7919 34.1893 36.3754 35.6523 36.3754C37.1152 36.3754 38.4396 35.7919 39.3983 34.8486C40.3569 33.9054 40.9498 32.6021 40.9498 31.1627C40.9498 29.7233 40.3569 28.4201 39.3983 27.4766Z" fill="#3378FF"/>
<path d="M85.2377 26.0511C86.6519 27.4528 87.1172 29.3283 87.1172 31.2526C87.1172 31.4969 87.0252 31.7242 86.8427 31.8947C86.661 32.0653 86.4329 32.1516 86.2032 32.1516H74.6911C75.0238 35.1326 77.0168 36.4288 79.9466 36.4288C81.5302 36.4288 82.771 36.0558 83.6667 35.3115C84.1245 34.9312 84.4854 34.4619 84.7508 33.9045H86.7083C86.3973 34.8674 85.9012 35.6897 85.2194 36.3646C84.9739 36.6082 84.7085 36.8275 84.424 37.0233C83.2412 37.851 81.7457 38.2649 79.9382 38.2649C76.3945 38.2649 73.6526 36.6143 72.9748 33.0786C72.7995 32.1635 72.7686 31.1133 72.8627 30.1768C73.0352 28.4628 73.6493 27.0833 74.6911 26.0511C77.23 23.5353 82.6974 23.5348 85.2377 26.0511ZM85.2634 30.3536C85.1066 28.9323 84.5799 27.8484 83.6841 27.1043C81.8673 25.5943 78.0611 25.5963 76.2444 27.1043C75.3544 27.843 74.8303 28.9323 74.6911 30.3536H85.2634Z" fill="#3378FF"/>
<path d="M6.81115 48.1034V44.2481H6.20703V43.8022H6.81115V43.6866C6.81115 43.3343 6.86295 43.0316 6.96642 42.7785C7.06989 42.5252 7.21815 42.3312 7.41106 42.1964C7.60409 42.0616 7.83197 41.9941 8.09493 41.9941C8.26832 41.9941 8.43613 42.0189 8.59829 42.0685C8.76053 42.118 8.90038 42.184 9.01775 42.2666L8.84157 42.6711C8.76883 42.6106 8.67377 42.5637 8.55632 42.5307C8.43887 42.4977 8.32142 42.4813 8.20389 42.4813C7.94105 42.4813 7.73832 42.5831 7.59568 42.7867C7.45303 42.9903 7.38172 43.2847 7.38172 43.6701V43.8022H8.58983V44.2481H7.38172V48.1034H6.81115ZM9.8409 48.1034V43.8022H10.4114V48.1034H9.8409ZM9.8409 42.9023V42.0766H10.4114V42.9023H9.8409ZM15.8156 48.1034H15.2451V45.7011C15.2451 45.1946 15.1696 44.8245 15.0185 44.5906C14.8675 44.3566 14.6298 44.2397 14.3053 44.2397C14.0817 44.2397 13.8607 44.2933 13.6425 44.4006C13.4244 44.5081 13.2328 44.6539 13.0678 44.8383C12.9028 45.0226 12.784 45.2331 12.7112 45.4698V48.1034H12.1407V43.8022H12.6608V44.7763C12.7783 44.5671 12.9322 44.3842 13.1223 44.2273C13.3125 44.0705 13.5279 43.948 13.7684 43.86C14.0089 43.7718 14.2578 43.7279 14.5151 43.7279C14.7557 43.7279 14.9598 43.7718 15.1276 43.86C15.2954 43.948 15.4296 44.0732 15.5304 44.2356C15.6311 44.3979 15.7038 44.5934 15.7485 44.8217C15.7933 45.0501 15.8156 45.3047 15.8156 45.5854V48.1034ZM17.2092 45.9651C17.2092 45.5579 17.2946 45.185 17.4652 44.8465C17.6357 44.508 17.8721 44.237 18.1741 44.0333C18.4761 43.8297 18.8203 43.7279 19.2062 43.7279C19.5697 43.7279 19.8956 43.8228 20.1837 44.0126C20.4717 44.2026 20.6968 44.4323 20.859 44.702V42.0766H21.4296V47.4265C21.4296 47.5035 21.4464 47.5599 21.4799 47.5957C21.5135 47.6315 21.5638 47.6521 21.6309 47.6576V48.1034C21.5191 48.12 21.4323 48.1254 21.3709 48.12C21.2533 48.1145 21.1499 48.0676 21.0604 47.9796C20.9709 47.8915 20.9262 47.7952 20.9262 47.6906V47.2696C20.7528 47.5502 20.5178 47.7732 20.2214 47.9383C19.9249 48.1034 19.6173 48.186 19.2985 48.186C18.9965 48.186 18.7181 48.1254 18.4637 48.0043C18.2091 47.8832 17.9882 47.7181 17.8009 47.509C17.6134 47.2998 17.468 47.0618 17.3645 46.7949C17.2611 46.528 17.2092 46.2514 17.2092 45.9651ZM20.859 46.6256V45.2964C20.7863 45.0983 20.6689 44.9181 20.5067 44.7557C20.3444 44.5934 20.1612 44.464 19.957 44.3676C19.7529 44.2714 19.5502 44.2231 19.3487 44.2231C19.1138 44.2231 18.9013 44.2714 18.7112 44.3676C18.5209 44.464 18.3574 44.5947 18.2203 44.7599C18.0833 44.925 17.9785 45.1121 17.9057 45.3213C17.833 45.5303 17.7966 45.745 17.7966 45.9651C17.7966 46.1963 17.8372 46.4165 17.9182 46.6256C17.9994 46.8348 18.1155 47.0205 18.2664 47.1829C18.4175 47.3452 18.5908 47.4704 18.7867 47.5586C18.9824 47.6466 19.195 47.6906 19.4243 47.6906C19.5697 47.6906 19.7207 47.6631 19.8773 47.608C20.034 47.5531 20.1837 47.4773 20.3263 47.3811C20.4689 47.2847 20.5878 47.1705 20.6828 47.0384C20.778 46.9064 20.8367 46.7687 20.859 46.6256ZM26.2895 49.4243C26.3678 49.4299 26.4434 49.4339 26.516 49.4366C26.5887 49.4394 26.6419 49.4352 26.6755 49.4243C26.7426 49.4133 26.8069 49.3747 26.8684 49.3087C26.93 49.2426 27.0027 49.1161 27.0866 48.929C27.1705 48.7419 27.2879 48.4666 27.4389 48.1034L25.5343 43.8022H26.1385L27.7411 47.5256L29.2176 43.8022H29.7882L27.5229 49.3501C27.4837 49.4546 27.4251 49.5523 27.3467 49.6431C27.2684 49.7339 27.1719 49.8055 27.0572 49.8577C26.9425 49.9101 26.8013 49.939 26.6335 49.9445C26.5833 49.95 26.5314 49.9514 26.4783 49.9486C26.4252 49.9458 26.3623 49.939 26.2895 49.9279V49.4243ZM32.9186 48.186C32.6054 48.186 32.3159 48.1267 32.0503 48.0085C31.7845 47.8901 31.5552 47.7278 31.3622 47.5214C31.1692 47.315 31.0196 47.0783 30.9133 46.8113C30.8071 46.5444 30.754 46.2623 30.754 45.9651C30.754 45.657 30.8071 45.3694 30.9133 45.1025C31.0196 44.8356 31.1706 44.5988 31.3664 44.3924C31.5622 44.186 31.7929 44.0236 32.0587 43.9054C32.3243 43.7871 32.6138 43.7279 32.927 43.7279C33.2402 43.7279 33.5284 43.7871 33.7912 43.9054C34.0542 44.0236 34.2834 44.186 34.4793 44.3924C34.6749 44.5988 34.8261 44.8356 34.9323 45.1025C35.0386 45.3694 35.0917 45.657 35.0917 45.9651C35.0917 46.2623 35.0386 46.5444 34.9323 46.8113C34.8261 47.0783 34.6763 47.315 34.4833 47.5214C34.2904 47.7278 34.0611 47.8901 33.7954 48.0085C33.5298 48.1267 33.2375 48.186 32.9186 48.186ZM31.3328 45.9735C31.3328 46.2926 31.4041 46.583 31.5468 46.8443C31.6895 47.1058 31.8811 47.3122 32.1216 47.4636C32.3621 47.6149 32.6278 47.6906 32.9186 47.6906C33.2095 47.6906 33.4751 47.6136 33.7157 47.4595C33.9561 47.3053 34.1492 47.0948 34.2946 46.8279C34.4401 46.561 34.5128 46.2706 34.5128 45.9569C34.5128 45.6376 34.4401 45.346 34.2946 45.0817C34.1492 44.8176 33.9561 44.6085 33.7157 44.4544C33.4751 44.3002 33.2095 44.2231 32.9186 44.2231C32.6278 44.2231 32.3635 44.303 32.1258 44.4626C31.888 44.6222 31.6964 44.8328 31.551 45.0941C31.4056 45.3556 31.3328 45.6487 31.3328 45.9735ZM36.4769 46.3284V43.8022H37.0475V46.2293C37.0475 46.7191 37.1329 47.0851 37.3034 47.3273C37.474 47.5695 37.7272 47.6906 38.0627 47.6906C38.2865 47.6906 38.5033 47.6424 38.713 47.5461C38.9228 47.4498 39.1086 47.3122 39.271 47.1333C39.4331 46.9545 39.5562 46.7466 39.6401 46.5101V43.8022H40.2107V47.4265C40.2107 47.5034 40.2273 47.5599 40.2609 47.5957C40.2946 47.6315 40.3449 47.6521 40.412 47.6576V48.1034C40.3449 48.1089 40.2918 48.1131 40.2526 48.1158C40.2135 48.1186 40.1771 48.12 40.1436 48.12C40.0317 48.1089 39.9352 48.0649 39.8541 47.9878C39.7729 47.9108 39.7296 47.8171 39.724 47.7071L39.7072 47.1292C39.5171 47.4595 39.2584 47.7181 38.931 47.9053C38.6039 48.0923 38.2501 48.186 37.8698 48.186C37.4112 48.186 37.0644 48.0291 36.8294 47.7153C36.5945 47.4016 36.4769 46.9394 36.4769 46.3284ZM44.1549 44.2975C43.7746 44.3086 43.4403 44.4131 43.1522 44.6112C42.8643 44.8093 42.6614 45.0817 42.544 45.4285V48.1034H41.9734V43.8022H42.5104V44.8341C42.6614 44.5314 42.8614 44.2865 43.1104 44.0994C43.3593 43.9122 43.6235 43.8076 43.9031 43.7856C43.9591 43.7801 44.0081 43.7774 44.05 43.7774C44.092 43.7774 44.1269 43.7801 44.1549 43.7856V44.2975ZM48.4443 48.1034V44.2481H47.8402V43.8022H48.4443V43.6866C48.4443 43.3343 48.4961 43.0316 48.5995 42.7785C48.7031 42.5252 48.8513 42.3312 49.0442 42.1964C49.2372 42.0616 49.4652 41.9941 49.7281 41.9941C49.9015 41.9941 50.0693 42.0189 50.2314 42.0685C50.3937 42.118 50.5335 42.184 50.6509 42.2666L50.4747 42.6711C50.402 42.6106 50.307 42.5637 50.1894 42.5307C50.0721 42.4977 49.9545 42.4813 49.837 42.4813C49.5742 42.4813 49.3714 42.5831 49.2288 42.7867C49.0862 42.9904 49.0148 43.2847 49.0148 43.6701V43.8022H50.2229V44.2481H49.0148V48.1034H48.4443ZM51.1217 46.8651C51.1217 46.5954 51.2 46.3628 51.3565 46.1674C51.5132 45.9721 51.73 45.8206 52.0069 45.7133C52.2837 45.606 52.6039 45.5524 52.9675 45.5524C53.18 45.5524 53.4009 45.5688 53.6304 45.6019C53.8596 45.6349 54.0638 45.6845 54.2428 45.7505V45.3873C54.2428 45.024 54.1337 44.7351 53.9156 44.5205C53.6975 44.3058 53.3954 44.1984 53.0094 44.1984C52.7745 44.1984 52.5439 44.2411 52.3172 44.3264C52.0908 44.4117 51.8543 44.5369 51.6082 44.702L51.3901 44.3058C51.6753 44.1132 51.955 43.9687 52.2292 43.8723C52.5033 43.776 52.7829 43.7279 53.0682 43.7279C53.6051 43.7279 54.0302 43.8792 54.3434 44.182C54.6567 44.4846 54.8133 44.903 54.8133 45.4368V47.4265C54.8133 47.5034 54.8301 47.5599 54.8638 47.5957C54.8973 47.6315 54.9504 47.6521 55.0231 47.6576V48.1034C54.9616 48.1089 54.9084 48.1145 54.8638 48.12C54.819 48.1254 54.7854 48.1254 54.763 48.12C54.6231 48.1145 54.5168 48.0704 54.4441 47.9878C54.3715 47.9053 54.3323 47.8171 54.3268 47.7236L54.3183 47.4099C54.1226 47.6576 53.8681 47.8488 53.5548 47.9836C53.2416 48.1186 52.9228 48.186 52.5984 48.186C52.3187 48.186 52.0655 48.1267 51.8391 48.0085C51.6125 47.8901 51.4363 47.7306 51.3105 47.5296C51.1845 47.3286 51.1217 47.1072 51.1217 46.8651ZM54.0499 47.1952C54.1114 47.1183 54.159 47.044 54.1925 46.9724C54.2261 46.9008 54.2428 46.8376 54.2428 46.7825V46.155C54.0526 46.0835 53.8554 46.0285 53.6513 45.9899C53.4471 45.9514 53.2416 45.9321 53.0346 45.9321C52.6263 45.9321 52.2963 46.012 52.0446 46.1716C51.7929 46.3311 51.667 46.5486 51.667 46.8237C51.667 46.9833 51.7089 47.1333 51.7929 47.2737C51.8768 47.4141 51.9998 47.5296 52.162 47.6205C52.3243 47.7112 52.5144 47.7566 52.7326 47.7566C53.0066 47.7566 53.2626 47.7044 53.5002 47.5998C53.738 47.4953 53.9212 47.3605 54.0499 47.1952ZM57.818 48.1034L56.0476 43.8022H56.6433L58.1368 47.542L59.6386 43.8022H60.2007L58.4304 48.1034H57.818ZM63.3229 48.186C63.0096 48.186 62.7201 48.1267 62.4545 48.0085C62.1888 47.8901 61.9594 47.7278 61.7664 47.5214C61.5735 47.315 61.4239 47.0783 61.3176 46.8113C61.2113 46.5444 61.1582 46.2623 61.1582 45.9651C61.1582 45.657 61.2113 45.3694 61.3176 45.1025C61.4239 44.8356 61.5749 44.5988 61.7707 44.3924C61.9665 44.186 62.1972 44.0236 62.4629 43.9054C62.7286 43.7871 63.0181 43.7279 63.3313 43.7279C63.6445 43.7279 63.9326 43.7871 64.1954 43.9054C64.4584 44.0236 64.6877 44.186 64.8835 44.3924C65.0792 44.5988 65.2302 44.8356 65.3366 45.1025C65.4428 45.3694 65.4959 45.657 65.4959 45.9651C65.4959 46.2623 65.4428 46.5444 65.3366 46.8113C65.2302 47.0783 65.0806 47.315 64.8876 47.5214C64.6947 47.7278 64.4653 47.8901 64.1996 48.0085C63.934 48.1267 63.6417 48.186 63.3229 48.186ZM61.7371 45.9735C61.7371 46.2926 61.8084 46.583 61.9511 46.8443C62.0937 47.1058 62.2853 47.3122 62.5258 47.4636C62.7663 47.6149 63.032 47.6906 63.3229 47.6906C63.6138 47.6906 63.8794 47.6136 64.1199 47.4595C64.3604 47.3053 64.5534 47.0948 64.6989 46.8279C64.8443 46.561 64.917 46.2706 64.917 45.9569C64.917 45.6376 64.8443 45.346 64.6989 45.0817C64.5534 44.8176 64.3604 44.6085 64.1199 44.4544C63.8794 44.3002 63.6138 44.2231 63.3229 44.2231C63.0319 44.2231 62.7677 44.303 62.53 44.4626C62.2922 44.6222 62.1007 44.8328 61.9553 45.0941C61.8098 45.3556 61.7371 45.6487 61.7371 45.9735ZM69.1046 44.2975C68.7242 44.3086 68.39 44.4131 68.1019 44.6112C67.8139 44.8093 67.6111 45.0817 67.4937 45.4285V48.1034H66.9232V43.8022H67.4602V44.8341C67.6111 44.5314 67.8111 44.2865 68.06 44.0994C68.3089 43.9122 68.5732 43.8076 68.8529 43.7856C68.9089 43.7801 68.9577 43.7774 68.9997 43.7774C69.0417 43.7774 69.0767 43.7801 69.1046 43.7856V44.2975ZM70.3388 48.1034V43.8022H70.9094V48.1034H70.3388ZM70.3388 42.9023V42.0766H70.9094V42.9023H70.3388ZM74.7362 47.897C74.6915 47.9135 74.6215 47.9438 74.5264 47.9877C74.4313 48.0318 74.3166 48.0704 74.1824 48.1034C74.0482 48.1364 73.9027 48.153 73.7462 48.153C73.5839 48.153 73.4314 48.1226 73.2889 48.0621C73.1462 48.0016 73.033 47.9094 72.949 47.7855C72.8652 47.6617 72.8233 47.509 72.8233 47.3273V44.248H72.2191V43.8022H72.8233V42.3492H73.3938V43.8022H74.4006V44.248H73.3938V47.1705C73.4049 47.3246 73.4623 47.4401 73.5658 47.5172C73.6692 47.5943 73.788 47.6328 73.9224 47.6328C74.0789 47.6328 74.2216 47.6066 74.3502 47.5544C74.4789 47.5021 74.5572 47.4649 74.5852 47.4429L74.7362 47.897ZM77.8078 48.186C77.4946 48.186 77.2038 48.1267 76.9353 48.0085C76.6668 47.8901 76.4346 47.7277 76.2389 47.5214C76.0431 47.315 75.8907 47.077 75.7816 46.8073C75.6725 46.5375 75.618 46.2486 75.618 45.9404C75.618 45.5386 75.7117 45.1699 75.8991 44.8341C76.0864 44.4983 76.3451 44.2301 76.6753 44.0292C77.0052 43.8283 77.3799 43.7279 77.7995 43.7279C78.2302 43.7279 78.6064 43.8297 78.9279 44.0333C79.2496 44.237 79.5027 44.5052 79.6873 44.8383C79.8719 45.1712 79.9641 45.5358 79.9641 45.9321C79.9641 45.9762 79.9641 46.0188 79.9641 46.0601C79.9641 46.1014 79.9614 46.133 79.9558 46.155H76.2138C76.2417 46.4632 76.3297 46.7371 76.478 46.9766C76.6262 47.2159 76.8192 47.4057 77.057 47.5461C77.2947 47.6865 77.5534 47.7566 77.8331 47.7566C78.1183 47.7566 78.3883 47.6851 78.6427 47.542C78.8971 47.3989 79.0748 47.2118 79.1754 46.9806L79.6704 47.1127C79.581 47.3164 79.444 47.5006 79.2594 47.6659C79.0748 47.831 78.858 47.9589 78.6091 48.0498C78.3603 48.1406 78.0931 48.186 77.8078 48.186ZM76.1969 45.7505H79.4271C79.4048 45.4367 79.3195 45.1616 79.1712 44.9249C79.0231 44.6883 78.83 44.5025 78.5924 44.3676C78.3547 44.2328 78.0931 44.1654 77.8078 44.1654C77.5226 44.1654 77.2625 44.2328 77.0276 44.3676C76.7926 44.5025 76.6011 44.6896 76.4529 44.9291C76.3046 45.1685 76.2194 45.4423 76.1969 45.7505ZM87.8363 48.1034H87.2656V45.7011C87.2656 45.2166 87.1793 44.852 87.006 44.6071C86.8326 44.3621 86.583 44.2397 86.2586 44.2397C86.0463 44.2397 85.8348 44.2933 85.6258 44.4006C85.4159 44.508 85.2309 44.6539 85.0717 44.8383C84.9124 45.0226 84.7988 45.2331 84.7316 45.4698V48.1034H84.1609V42.0766H84.7316V44.7763C84.905 44.4571 85.1472 44.2026 85.4574 44.0126C85.7676 43.8228 86.0994 43.7279 86.4519 43.7279C86.7032 43.7279 86.9172 43.7718 87.0939 43.86C87.2698 43.948 87.4124 44.0761 87.5219 44.2439C87.6306 44.4117 87.7102 44.6071 87.7608 44.8301C87.8114 45.0529 87.8363 45.3047 87.8363 45.5854V48.1034ZM91.3864 48.186C91.0728 48.186 90.7833 48.1267 90.5179 48.0085C90.2525 47.8901 90.0227 47.7277 89.8295 47.5214C89.637 47.315 89.4869 47.0783 89.3807 46.8113C89.2746 46.5444 89.2215 46.2623 89.2215 45.9651C89.2215 45.657 89.2746 45.3693 89.3807 45.1025C89.4869 44.8356 89.6387 44.5988 89.8336 44.3924C90.0302 44.186 90.2608 44.0236 90.5262 43.9054C90.7916 43.7871 91.0811 43.7279 91.3946 43.7279C91.7082 43.7279 91.996 43.7871 92.2589 43.9054C92.5219 44.0236 92.7508 44.186 92.9466 44.3924C93.1423 44.5988 93.2933 44.8356 93.4003 45.1025C93.5064 45.3693 93.5595 45.657 93.5595 45.9651C93.5595 46.2623 93.5064 46.5444 93.4003 46.8113C93.2933 47.0783 93.144 47.315 92.9507 47.5214C92.7583 47.7277 92.5285 47.8901 92.2631 48.0085C91.9977 48.1267 91.7049 48.186 91.3864 48.186ZM89.8004 45.9735C89.8004 46.2926 89.8718 46.583 90.0144 46.8443C90.1571 47.1058 90.3487 47.3122 90.5892 47.4636C90.8298 47.6149 91.0952 47.6906 91.3864 47.6906C91.6775 47.6906 91.9429 47.6136 92.1835 47.4595C92.424 47.3053 92.6164 47.0948 92.7624 46.8279C92.9076 46.561 92.9806 46.2706 92.9806 45.9569C92.9806 45.6376 92.9076 45.346 92.7624 45.0817C92.6164 44.8176 92.424 44.6084 92.1835 44.4544C91.9429 44.3002 91.6775 44.2231 91.3864 44.2231C91.0952 44.2231 90.8314 44.303 90.5934 44.4626C90.3553 44.6222 90.1637 44.8328 90.0186 45.0941C89.8734 45.3556 89.8004 45.6486 89.8004 45.9735ZM96.4212 48.186C96.0628 48.186 95.7302 48.1281 95.4225 48.0126C95.1148 47.897 94.8493 47.7209 94.6254 47.4842L94.8609 47.0879C95.1065 47.3136 95.3545 47.4773 95.6033 47.5791C95.8521 47.681 96.1167 47.7319 96.3963 47.7319C96.7372 47.7319 97.0142 47.6645 97.2266 47.5296C97.4389 47.3948 97.5459 47.2007 97.5459 46.9476C97.5459 46.7769 97.4937 46.6462 97.39 46.5555C97.2871 46.4646 97.1386 46.3904 96.9454 46.3325C96.7529 46.2747 96.5215 46.2129 96.2536 46.1468C95.9517 46.0642 95.6987 45.9776 95.4938 45.8867C95.2898 45.7959 95.1363 45.6803 95.0326 45.54C94.929 45.3996 94.8775 45.2166 94.8775 44.991C94.8775 44.7102 94.9489 44.4777 95.0915 44.2933C95.2342 44.1091 95.43 43.9686 95.6788 43.8722C95.9276 43.776 96.2055 43.7279 96.5132 43.7279C96.8492 43.7279 97.1453 43.7801 97.4032 43.8847C97.6604 43.9892 97.8702 44.1351 98.032 44.3222L97.7549 44.702C97.599 44.526 97.4124 44.3951 97.1975 44.3099C96.9819 44.2246 96.743 44.182 96.48 44.182C96.3009 44.182 96.13 44.2053 95.9683 44.2521C95.8057 44.2989 95.673 44.3759 95.5693 44.4833C95.4665 44.5906 95.4142 44.7377 95.4142 44.9249C95.4142 45.0791 95.4532 45.1987 95.532 45.2841C95.6099 45.3693 95.7277 45.4409 95.8845 45.4986C96.0413 45.5566 96.2337 45.6184 96.4635 45.6845C96.7936 45.7725 97.0814 45.862 97.3278 45.9527C97.5733 46.0436 97.7641 46.1605 97.8976 46.3036C98.032 46.4467 98.0992 46.6476 98.0992 46.9063C98.0992 47.3081 97.9457 47.6218 97.638 47.8474C97.3302 48.0731 96.9246 48.186 96.4212 48.186ZM101.607 47.897C101.563 47.9135 101.492 47.9438 101.398 47.9877C101.303 48.0318 101.188 48.0704 101.054 48.1034C100.919 48.1364 100.774 48.153 100.617 48.153C100.455 48.153 100.302 48.1226 100.16 48.0621C100.018 48.0016 99.9041 47.9094 99.8203 47.7855C99.7365 47.6617 99.6942 47.509 99.6942 47.3273V44.248H99.0903V43.8022H99.6942V42.3492H100.265V43.8022H101.272V44.248H100.265V47.1705C100.276 47.3246 100.334 47.4401 100.437 47.5172C100.54 47.5943 100.659 47.6328 100.793 47.6328C100.95 47.6328 101.093 47.6066 101.221 47.5544C101.35 47.5021 101.429 47.4649 101.456 47.4429L101.607 47.897Z" fill="#727272"/>
</g>
</g>
<defs>
<clipPath id="clip0_133_2031">
<rect width="107" height="50" fill="white"/>
</clipPath>
</defs>
</svg>
