<svg width="24" height="24" viewBox="0 0 24 24" fill="none" xmlns="http://www.w3.org/2000/svg">
<path fill-rule="evenodd" clip-rule="evenodd" d="M19 20.8889C19 21.5022 18.5211 22 17.9286 22C17.3361 22 16.8571 21.5022 16.8571 20.8889C16.8571 17.8256 14.4539 15.3333 11.5 15.3333C8.54607 15.3333 6.14286 17.8256 6.14286 20.8889C6.14286 21.5022 5.66393 22 5.07143 22C4.47893 22 4 21.5022 4 20.8889C4 16.6 7.36536 13.1111 11.5 13.1111C15.6346 13.1111 19 16.6 19 20.8889ZM11.5003 4.22217C12.6821 4.22217 13.6431 5.21883 13.6431 6.44439C13.6431 7.66995 12.6821 8.66661 11.5003 8.66661C10.3185 8.66661 9.35742 7.66995 9.35742 6.44439C9.35742 5.21883 10.3185 4.22217 11.5003 4.22217ZM11.5006 10.8889C13.8641 10.8889 15.7863 8.89556 15.7863 6.44444C15.7863 3.99333 13.8641 2 11.5006 2C9.13699 2 7.21484 3.99333 7.21484 6.44444C7.21484 8.89556 9.13699 10.8889 11.5006 10.8889Z" fill="#6C759D"/>
</svg>
