<svg width="32" height="34" viewBox="0 0 32 34" fill="none" xmlns="http://www.w3.org/2000/svg">
<path d="M31.8628 5.43375C31.8628 4.04031 31.3341 2.80944 30.2766 1.74113C29.2191 0.672825 28.0007 0.138672 26.6214 0.138672H5.38005C4.00074 0.138672 2.78235 0.672825 1.72488 1.74113C0.667408 2.80944 0.138672 4.04031 0.138672 5.43375V26.8928C0.138672 28.2862 0.667408 29.5171 1.72488 30.5854C2.78235 31.6537 4.00074 32.1879 5.38005 32.1879H16.0007V20.0649H12.1387V14.7698H16.0007V12.6797C16.0007 10.8682 16.587 9.27733 17.7594 7.90711C18.9318 6.5369 20.3226 5.85179 21.9318 5.85179H26.2076V11.1469H21.9318C21.7019 11.1469 21.4835 11.2862 21.2766 11.5649C21.0697 11.8436 20.9663 12.192 20.9663 12.61V14.7698H26.2076V20.0649H20.9663V32.1879H26.6214C28.0007 32.1879 29.2191 31.6537 30.2766 30.5854C31.3341 29.5171 31.8628 28.2862 31.8628 26.8928V5.43375Z" fill="#FEFEFE"/>
</svg>
