<svg width="42" height="42" viewBox="0 0 42 42" fill="none" xmlns="http://www.w3.org/2000/svg">
<path d="M22.7981 3.50215C24.0751 3.49725 25.3521 3.51009 26.6288 3.54065L26.9683 3.5529C27.3603 3.5669 27.7471 3.5844 28.2143 3.6054C30.0763 3.6929 31.3468 3.9869 32.4616 4.41915C33.6166 4.86365 34.5896 5.46565 35.5626 6.43865C36.4522 7.31296 37.1408 8.37056 37.5803 9.5379C38.0126 10.6527 38.3066 11.9249 38.3941 13.7869C38.4151 14.2524 38.4326 14.6409 38.4466 15.0329L38.4571 15.3724C38.4882 16.6485 38.5016 17.9249 38.4973 19.2014L38.4991 20.5069V22.7994C38.5034 24.0764 38.49 25.3535 38.4588 26.6302L38.4483 26.9697C38.4343 27.3617 38.4168 27.7484 38.3958 28.2157C38.3083 30.0777 38.0108 31.3482 37.5803 32.4629C37.1422 33.6315 36.4535 34.6899 35.5626 35.5639C34.6875 36.4535 33.6293 37.142 32.4616 37.5817C31.3468 38.0139 30.0763 38.3079 28.2143 38.3954C27.7471 38.4164 27.3603 38.4339 26.9683 38.4479L26.6288 38.4584C25.3521 38.4895 24.0751 38.5029 22.7981 38.4987L21.4926 38.5004H19.2018C17.9248 38.5047 16.6477 38.4913 15.3711 38.4602L15.0316 38.4497C14.6161 38.4346 14.2008 38.4171 13.7856 38.3972C11.9236 38.3097 10.6531 38.0122 9.53656 37.5817C8.36875 37.143 7.31097 36.4543 6.43731 35.5639C5.54664 34.6894 4.85745 33.6311 4.41781 32.4629C3.98556 31.3482 3.69156 30.0777 3.60406 28.2157C3.58457 27.8004 3.56707 27.3851 3.55156 26.9697L3.54281 26.6302C3.51054 25.3535 3.49596 24.0765 3.49906 22.7994V19.2014C3.49417 17.925 3.50701 16.6485 3.53756 15.3724L3.54981 15.0329C3.56381 14.6409 3.58131 14.2524 3.60231 13.7869C3.68981 11.9232 3.98381 10.6544 4.41606 9.5379C4.85596 8.36999 5.54649 7.31268 6.43906 6.4404C7.31212 5.54922 8.36924 4.85941 9.53656 4.41915C10.6531 3.9869 11.9218 3.6929 13.7856 3.6054L15.0316 3.5529L15.3711 3.54415C16.6471 3.51191 17.9236 3.49732 19.2001 3.5004L22.7981 3.50215ZM20.9991 12.2522C19.8397 12.2358 18.6886 12.4499 17.6128 12.8823C16.5369 13.3146 15.5577 13.9564 14.732 14.7705C13.9064 15.5846 13.2508 16.5546 12.8033 17.6242C12.3558 18.6939 12.1253 19.8418 12.1253 21.0013C12.1253 22.1608 12.3558 23.3087 12.8033 24.3783C13.2508 25.448 13.9064 26.418 14.732 27.2321C15.5577 28.0461 16.5369 28.688 17.6128 29.1203C18.6886 29.5526 19.8397 29.7668 20.9991 29.7504C23.3197 29.7504 25.5453 28.8285 27.1862 27.1876C28.8272 25.5466 29.7491 23.321 29.7491 21.0004C29.7491 18.6798 28.8272 16.4542 27.1862 14.8132C25.5453 13.1723 23.3197 12.2522 20.9991 12.2522ZM20.9991 15.7522C21.6964 15.7393 22.3894 15.8655 23.0374 16.1235C23.6855 16.3815 24.2756 16.766 24.7734 17.2546C25.2712 17.7432 25.6666 18.3261 25.9366 18.9692C26.2066 19.6124 26.3457 20.3029 26.3458 21.0004C26.3459 21.6979 26.207 22.3884 25.9373 23.0317C25.6675 23.6749 25.2723 24.2579 24.7747 24.7467C24.2771 25.2355 23.687 25.6202 23.0391 25.8784C22.3911 26.1365 21.6982 26.263 21.0008 26.2504C19.6084 26.2504 18.2731 25.6973 17.2885 24.7127C16.3039 23.7281 15.7508 22.3928 15.7508 21.0004C15.7508 19.608 16.3039 18.2727 17.2885 17.2881C18.2731 16.3035 19.6084 15.7504 21.0008 15.7504L20.9991 15.7522ZM30.1866 9.62715C29.622 9.64975 29.0881 9.88992 28.6966 10.2974C28.3052 10.7048 28.0865 11.2479 28.0865 11.8129C28.0865 12.3779 28.3052 12.921 28.6966 13.3285C29.0881 13.7359 29.622 13.9761 30.1866 13.9987C30.7667 13.9987 31.3231 13.7682 31.7334 13.3579C32.1436 12.9477 32.3741 12.3913 32.3741 11.8112C32.3741 11.231 32.1436 10.6746 31.7334 10.2644C31.3231 9.85412 30.7667 9.62365 30.1866 9.62365V9.62715Z" fill="#FEFEFE"/>
</svg>
