<svg width="52" height="52" viewBox="0 0 52 52" fill="none" xmlns="http://www.w3.org/2000/svg">
<rect width="52.0003" height="52" rx="10" fill="#6C759D"/>
<path fill-rule="evenodd" clip-rule="evenodd" d="M19 25C19 21.691 21.691 19 25 19C28.309 19 31 21.691 31 25C31 28.309 28.309 31 25 31C21.691 31 19 28.309 19 25ZM34.707 33.293L31.312 29.897C32.365 28.543 33 26.846 33 25C33 20.589 29.411 17 25 17C20.589 17 17 20.589 17 25C17 29.411 20.589 33 25 33C26.846 33 28.543 32.365 29.897 31.312L33.293 34.707C33.488 34.902 33.744 35 34 35C34.256 35 34.512 34.902 34.707 34.707C35.098 34.316 35.098 33.684 34.707 33.293Z" fill="#FEFEFE"/>
</svg>
